<mxfile host="app.diagrams.net" modified="2021-08-19T00:51:09.470Z" agent="5.0 (Windows NT 10.0; Win64; x64) AppleWebKit/537.36 (KHTML, like Gecko) Chrome/92.0.4515.131 Safari/537.36" etag="PwRtk2AjIoM7Y0E6lzbF" version="14.9.7" type="github">
  <diagram id="R2lEEEUBdFMjLlhIrx00" name="Page-1">
    <mxGraphModel dx="1102" dy="557" grid="1" gridSize="10" guides="1" tooltips="1" connect="1" arrows="1" fold="1" page="1" pageScale="1" pageWidth="850" pageHeight="1100" math="0" shadow="0" extFonts="Permanent Marker^https://fonts.googleapis.com/css?family=Permanent+Marker">
      <root>
        <mxCell id="0" />
        <mxCell id="1" parent="0" />
        <mxCell id="8NDdCrbXahnmu9EYXFvg-45" style="edgeStyle=orthogonalEdgeStyle;rounded=0;orthogonalLoop=1;jettySize=auto;html=1;entryX=0;entryY=0.5;entryDx=0;entryDy=0;" edge="1" parent="1" source="8NDdCrbXahnmu9EYXFvg-2" target="8NDdCrbXahnmu9EYXFvg-41">
          <mxGeometry relative="1" as="geometry" />
        </mxCell>
        <mxCell id="8NDdCrbXahnmu9EYXFvg-2" value="usuarios" style="rounded=1;arcSize=10;whiteSpace=wrap;html=1;align=center;" vertex="1" parent="1">
          <mxGeometry x="50" y="30" width="80" height="30" as="geometry" />
        </mxCell>
        <mxCell id="8NDdCrbXahnmu9EYXFvg-46" style="edgeStyle=orthogonalEdgeStyle;rounded=0;orthogonalLoop=1;jettySize=auto;html=1;entryX=0;entryY=0.5;entryDx=0;entryDy=0;" edge="1" parent="1" source="8NDdCrbXahnmu9EYXFvg-41" target="8NDdCrbXahnmu9EYXFvg-42">
          <mxGeometry relative="1" as="geometry" />
        </mxCell>
        <mxCell id="8NDdCrbXahnmu9EYXFvg-41" value="materias" style="rounded=1;arcSize=10;whiteSpace=wrap;html=1;align=center;" vertex="1" parent="1">
          <mxGeometry x="190" y="30" width="80" height="30" as="geometry" />
        </mxCell>
        <mxCell id="8NDdCrbXahnmu9EYXFvg-47" style="edgeStyle=orthogonalEdgeStyle;rounded=0;orthogonalLoop=1;jettySize=auto;html=1;entryX=0;entryY=0.5;entryDx=0;entryDy=0;" edge="1" parent="1" source="8NDdCrbXahnmu9EYXFvg-42" target="8NDdCrbXahnmu9EYXFvg-43">
          <mxGeometry relative="1" as="geometry" />
        </mxCell>
        <mxCell id="8NDdCrbXahnmu9EYXFvg-42" value="modulos" style="rounded=1;arcSize=10;whiteSpace=wrap;html=1;align=center;" vertex="1" parent="1">
          <mxGeometry x="310" y="30" width="80" height="30" as="geometry" />
        </mxCell>
        <mxCell id="8NDdCrbXahnmu9EYXFvg-48" style="edgeStyle=orthogonalEdgeStyle;rounded=0;orthogonalLoop=1;jettySize=auto;html=1;entryX=0;entryY=0.5;entryDx=0;entryDy=0;" edge="1" parent="1" source="8NDdCrbXahnmu9EYXFvg-43" target="8NDdCrbXahnmu9EYXFvg-44">
          <mxGeometry relative="1" as="geometry" />
        </mxCell>
        <mxCell id="8NDdCrbXahnmu9EYXFvg-43" value="aulas" style="rounded=1;arcSize=10;whiteSpace=wrap;html=1;align=center;" vertex="1" parent="1">
          <mxGeometry x="450" y="30" width="80" height="30" as="geometry" />
        </mxCell>
        <mxCell id="8NDdCrbXahnmu9EYXFvg-44" value="blocos" style="rounded=1;arcSize=10;whiteSpace=wrap;html=1;align=center;" vertex="1" parent="1">
          <mxGeometry x="590" y="30" width="80" height="30" as="geometry" />
        </mxCell>
        <mxCell id="8NDdCrbXahnmu9EYXFvg-49" value="usuarios" style="swimlane;fontStyle=0;childLayout=stackLayout;horizontal=1;startSize=26;horizontalStack=0;resizeParent=1;resizeParentMax=0;resizeLast=0;collapsible=1;marginBottom=0;align=center;fontSize=14;" vertex="1" parent="1">
          <mxGeometry x="70" y="90" width="160" height="206" as="geometry" />
        </mxCell>
        <mxCell id="8NDdCrbXahnmu9EYXFvg-52" value="id_usuario" style="text;fillColor=none;spacingLeft=4;spacingRight=4;overflow=hidden;rotatable=0;points=[[0,0.5],[1,0.5]];portConstraint=eastwest;fontSize=12;strokeColor=#000000;fontStyle=1" vertex="1" parent="8NDdCrbXahnmu9EYXFvg-49">
          <mxGeometry y="26" width="160" height="30" as="geometry" />
        </mxCell>
        <mxCell id="8NDdCrbXahnmu9EYXFvg-50" value="nome" style="text;strokeColor=none;fillColor=none;spacingLeft=4;spacingRight=4;overflow=hidden;rotatable=0;points=[[0,0.5],[1,0.5]];portConstraint=eastwest;fontSize=12;" vertex="1" parent="8NDdCrbXahnmu9EYXFvg-49">
          <mxGeometry y="56" width="160" height="30" as="geometry" />
        </mxCell>
        <mxCell id="8NDdCrbXahnmu9EYXFvg-53" value="sobrenome" style="text;strokeColor=none;fillColor=none;spacingLeft=4;spacingRight=4;overflow=hidden;rotatable=0;points=[[0,0.5],[1,0.5]];portConstraint=eastwest;fontSize=12;" vertex="1" parent="8NDdCrbXahnmu9EYXFvg-49">
          <mxGeometry y="86" width="160" height="30" as="geometry" />
        </mxCell>
        <mxCell id="8NDdCrbXahnmu9EYXFvg-51" value="email" style="text;strokeColor=none;fillColor=none;spacingLeft=4;spacingRight=4;overflow=hidden;rotatable=0;points=[[0,0.5],[1,0.5]];portConstraint=eastwest;fontSize=12;" vertex="1" parent="8NDdCrbXahnmu9EYXFvg-49">
          <mxGeometry y="116" width="160" height="30" as="geometry" />
        </mxCell>
        <mxCell id="8NDdCrbXahnmu9EYXFvg-54" value="senha" style="text;strokeColor=none;fillColor=none;spacingLeft=4;spacingRight=4;overflow=hidden;rotatable=0;points=[[0,0.5],[1,0.5]];portConstraint=eastwest;fontSize=12;" vertex="1" parent="8NDdCrbXahnmu9EYXFvg-49">
          <mxGeometry y="146" width="160" height="30" as="geometry" />
        </mxCell>
        <mxCell id="8NDdCrbXahnmu9EYXFvg-55" value="categoria" style="text;strokeColor=none;fillColor=none;spacingLeft=4;spacingRight=4;overflow=hidden;rotatable=0;points=[[0,0.5],[1,0.5]];portConstraint=eastwest;fontSize=12;" vertex="1" parent="8NDdCrbXahnmu9EYXFvg-49">
          <mxGeometry y="176" width="160" height="30" as="geometry" />
        </mxCell>
        <mxCell id="8NDdCrbXahnmu9EYXFvg-56" value="materias" style="swimlane;fontStyle=0;childLayout=stackLayout;horizontal=1;startSize=26;horizontalStack=0;resizeParent=1;resizeParentMax=0;resizeLast=0;collapsible=1;marginBottom=0;align=center;fontSize=14;" vertex="1" parent="1">
          <mxGeometry x="390" y="90" width="160" height="206" as="geometry" />
        </mxCell>
        <mxCell id="8NDdCrbXahnmu9EYXFvg-57" value="id_materia" style="text;fillColor=none;spacingLeft=4;spacingRight=4;overflow=hidden;rotatable=0;points=[[0,0.5],[1,0.5]];portConstraint=eastwest;fontSize=12;strokeColor=#000000;fontStyle=1" vertex="1" parent="8NDdCrbXahnmu9EYXFvg-56">
          <mxGeometry y="26" width="160" height="30" as="geometry" />
        </mxCell>
        <mxCell id="8NDdCrbXahnmu9EYXFvg-58" value="descricao" style="text;strokeColor=none;fillColor=none;spacingLeft=4;spacingRight=4;overflow=hidden;rotatable=0;points=[[0,0.5],[1,0.5]];portConstraint=eastwest;fontSize=12;" vertex="1" parent="8NDdCrbXahnmu9EYXFvg-56">
          <mxGeometry y="56" width="160" height="30" as="geometry" />
        </mxCell>
        <mxCell id="8NDdCrbXahnmu9EYXFvg-59" value="url_imagem" style="text;strokeColor=none;fillColor=none;spacingLeft=4;spacingRight=4;overflow=hidden;rotatable=0;points=[[0,0.5],[1,0.5]];portConstraint=eastwest;fontSize=12;" vertex="1" parent="8NDdCrbXahnmu9EYXFvg-56">
          <mxGeometry y="86" width="160" height="30" as="geometry" />
        </mxCell>
        <mxCell id="8NDdCrbXahnmu9EYXFvg-60" value="data_inicio" style="text;strokeColor=none;fillColor=none;spacingLeft=4;spacingRight=4;overflow=hidden;rotatable=0;points=[[0,0.5],[1,0.5]];portConstraint=eastwest;fontSize=12;" vertex="1" parent="8NDdCrbXahnmu9EYXFvg-56">
          <mxGeometry y="116" width="160" height="30" as="geometry" />
        </mxCell>
        <mxCell id="8NDdCrbXahnmu9EYXFvg-61" value="data_termino" style="text;strokeColor=none;fillColor=none;spacingLeft=4;spacingRight=4;overflow=hidden;rotatable=0;points=[[0,0.5],[1,0.5]];portConstraint=eastwest;fontSize=12;" vertex="1" parent="8NDdCrbXahnmu9EYXFvg-56">
          <mxGeometry y="146" width="160" height="30" as="geometry" />
        </mxCell>
        <mxCell id="8NDdCrbXahnmu9EYXFvg-62" value="capacidade_max" style="text;strokeColor=none;fillColor=none;spacingLeft=4;spacingRight=4;overflow=hidden;rotatable=0;points=[[0,0.5],[1,0.5]];portConstraint=eastwest;fontSize=12;" vertex="1" parent="8NDdCrbXahnmu9EYXFvg-56">
          <mxGeometry y="176" width="160" height="30" as="geometry" />
        </mxCell>
        <mxCell id="8NDdCrbXahnmu9EYXFvg-64" value="modulos" style="swimlane;fontStyle=0;childLayout=stackLayout;horizontal=1;startSize=26;horizontalStack=0;resizeParent=1;resizeParentMax=0;resizeLast=0;collapsible=1;marginBottom=0;align=center;fontSize=14;" vertex="1" parent="1">
          <mxGeometry x="70" y="344" width="160" height="176" as="geometry" />
        </mxCell>
        <mxCell id="8NDdCrbXahnmu9EYXFvg-65" value="id_modulo" style="text;fillColor=none;spacingLeft=4;spacingRight=4;overflow=hidden;rotatable=0;points=[[0,0.5],[1,0.5]];portConstraint=eastwest;fontSize=12;strokeColor=#000000;fontStyle=1" vertex="1" parent="8NDdCrbXahnmu9EYXFvg-64">
          <mxGeometry y="26" width="160" height="30" as="geometry" />
        </mxCell>
        <mxCell id="8NDdCrbXahnmu9EYXFvg-66" value="id_materia" style="text;strokeColor=none;fillColor=none;spacingLeft=4;spacingRight=4;overflow=hidden;rotatable=0;points=[[0,0.5],[1,0.5]];portConstraint=eastwest;fontSize=12;fontColor=#336600;fontStyle=1" vertex="1" parent="8NDdCrbXahnmu9EYXFvg-64">
          <mxGeometry y="56" width="160" height="30" as="geometry" />
        </mxCell>
        <mxCell id="8NDdCrbXahnmu9EYXFvg-67" value="titulo" style="text;strokeColor=none;fillColor=none;spacingLeft=4;spacingRight=4;overflow=hidden;rotatable=0;points=[[0,0.5],[1,0.5]];portConstraint=eastwest;fontSize=12;" vertex="1" parent="8NDdCrbXahnmu9EYXFvg-64">
          <mxGeometry y="86" width="160" height="30" as="geometry" />
        </mxCell>
        <mxCell id="8NDdCrbXahnmu9EYXFvg-68" value="descricao" style="text;strokeColor=none;fillColor=none;spacingLeft=4;spacingRight=4;overflow=hidden;rotatable=0;points=[[0,0.5],[1,0.5]];portConstraint=eastwest;fontSize=12;" vertex="1" parent="8NDdCrbXahnmu9EYXFvg-64">
          <mxGeometry y="116" width="160" height="30" as="geometry" />
        </mxCell>
        <mxCell id="8NDdCrbXahnmu9EYXFvg-69" value="data_inicio" style="text;strokeColor=none;fillColor=none;spacingLeft=4;spacingRight=4;overflow=hidden;rotatable=0;points=[[0,0.5],[1,0.5]];portConstraint=eastwest;fontSize=12;" vertex="1" parent="8NDdCrbXahnmu9EYXFvg-64">
          <mxGeometry y="146" width="160" height="30" as="geometry" />
        </mxCell>
        <mxCell id="8NDdCrbXahnmu9EYXFvg-71" value="aulas" style="swimlane;fontStyle=0;childLayout=stackLayout;horizontal=1;startSize=26;horizontalStack=0;resizeParent=1;resizeParentMax=0;resizeLast=0;collapsible=1;marginBottom=0;align=center;fontSize=14;" vertex="1" parent="1">
          <mxGeometry x="390" y="344" width="160" height="236" as="geometry" />
        </mxCell>
        <mxCell id="8NDdCrbXahnmu9EYXFvg-72" value="id_aula" style="text;fillColor=none;spacingLeft=4;spacingRight=4;overflow=hidden;rotatable=0;points=[[0,0.5],[1,0.5]];portConstraint=eastwest;fontSize=12;strokeColor=#000000;fontStyle=1" vertex="1" parent="8NDdCrbXahnmu9EYXFvg-71">
          <mxGeometry y="26" width="160" height="30" as="geometry" />
        </mxCell>
        <mxCell id="8NDdCrbXahnmu9EYXFvg-73" value="id_materia" style="text;strokeColor=none;fillColor=none;spacingLeft=4;spacingRight=4;overflow=hidden;rotatable=0;points=[[0,0.5],[1,0.5]];portConstraint=eastwest;fontSize=12;fontColor=#336600;fontStyle=1" vertex="1" parent="8NDdCrbXahnmu9EYXFvg-71">
          <mxGeometry y="56" width="160" height="30" as="geometry" />
        </mxCell>
        <mxCell id="8NDdCrbXahnmu9EYXFvg-74" value="id_modulo" style="text;strokeColor=none;fillColor=none;spacingLeft=4;spacingRight=4;overflow=hidden;rotatable=0;points=[[0,0.5],[1,0.5]];portConstraint=eastwest;fontSize=12;fontColor=#336600;fontStyle=1" vertex="1" parent="8NDdCrbXahnmu9EYXFvg-71">
          <mxGeometry y="86" width="160" height="30" as="geometry" />
        </mxCell>
        <mxCell id="8NDdCrbXahnmu9EYXFvg-75" value="titulo" style="text;strokeColor=none;fillColor=none;spacingLeft=4;spacingRight=4;overflow=hidden;rotatable=0;points=[[0,0.5],[1,0.5]];portConstraint=eastwest;fontSize=12;" vertex="1" parent="8NDdCrbXahnmu9EYXFvg-71">
          <mxGeometry y="116" width="160" height="30" as="geometry" />
        </mxCell>
        <mxCell id="8NDdCrbXahnmu9EYXFvg-85" value="descricao" style="text;strokeColor=none;fillColor=none;spacingLeft=4;spacingRight=4;overflow=hidden;rotatable=0;points=[[0,0.5],[1,0.5]];portConstraint=eastwest;fontSize=12;" vertex="1" parent="8NDdCrbXahnmu9EYXFvg-71">
          <mxGeometry y="146" width="160" height="30" as="geometry" />
        </mxCell>
        <mxCell id="8NDdCrbXahnmu9EYXFvg-76" value="data_inicio" style="text;strokeColor=none;fillColor=none;spacingLeft=4;spacingRight=4;overflow=hidden;rotatable=0;points=[[0,0.5],[1,0.5]];portConstraint=eastwest;fontSize=12;" vertex="1" parent="8NDdCrbXahnmu9EYXFvg-71">
          <mxGeometry y="176" width="160" height="30" as="geometry" />
        </mxCell>
        <mxCell id="8NDdCrbXahnmu9EYXFvg-77" value="visibilidade" style="text;strokeColor=none;fillColor=none;spacingLeft=4;spacingRight=4;overflow=hidden;rotatable=0;points=[[0,0.5],[1,0.5]];portConstraint=eastwest;fontSize=12;" vertex="1" parent="8NDdCrbXahnmu9EYXFvg-71">
          <mxGeometry y="206" width="160" height="30" as="geometry" />
        </mxCell>
        <mxCell id="8NDdCrbXahnmu9EYXFvg-78" value="blocos" style="swimlane;fontStyle=0;childLayout=stackLayout;horizontal=1;startSize=26;horizontalStack=0;resizeParent=1;resizeParentMax=0;resizeLast=0;collapsible=1;marginBottom=0;align=center;fontSize=14;" vertex="1" parent="1">
          <mxGeometry x="650" y="344" width="160" height="266" as="geometry" />
        </mxCell>
        <mxCell id="8NDdCrbXahnmu9EYXFvg-79" value="id_bloco" style="text;fillColor=none;spacingLeft=4;spacingRight=4;overflow=hidden;rotatable=0;points=[[0,0.5],[1,0.5]];portConstraint=eastwest;fontSize=12;strokeColor=#000000;fontStyle=1" vertex="1" parent="8NDdCrbXahnmu9EYXFvg-78">
          <mxGeometry y="26" width="160" height="30" as="geometry" />
        </mxCell>
        <mxCell id="8NDdCrbXahnmu9EYXFvg-80" value="id_materia" style="text;strokeColor=none;fillColor=none;spacingLeft=4;spacingRight=4;overflow=hidden;rotatable=0;points=[[0,0.5],[1,0.5]];portConstraint=eastwest;fontSize=12;fontColor=#336600;fontStyle=1" vertex="1" parent="8NDdCrbXahnmu9EYXFvg-78">
          <mxGeometry y="56" width="160" height="30" as="geometry" />
        </mxCell>
        <mxCell id="8NDdCrbXahnmu9EYXFvg-81" value="id_modulo" style="text;strokeColor=none;fillColor=none;spacingLeft=4;spacingRight=4;overflow=hidden;rotatable=0;points=[[0,0.5],[1,0.5]];portConstraint=eastwest;fontSize=12;fontColor=#336600;fontStyle=1" vertex="1" parent="8NDdCrbXahnmu9EYXFvg-78">
          <mxGeometry y="86" width="160" height="30" as="geometry" />
        </mxCell>
        <mxCell id="8NDdCrbXahnmu9EYXFvg-87" value="id_aula" style="text;strokeColor=none;fillColor=none;spacingLeft=4;spacingRight=4;overflow=hidden;rotatable=0;points=[[0,0.5],[1,0.5]];portConstraint=eastwest;fontSize=12;fontColor=#336600;fontStyle=1" vertex="1" parent="8NDdCrbXahnmu9EYXFvg-78">
          <mxGeometry y="116" width="160" height="30" as="geometry" />
        </mxCell>
        <mxCell id="8NDdCrbXahnmu9EYXFvg-86" value="titulo" style="text;strokeColor=none;fillColor=none;spacingLeft=4;spacingRight=4;overflow=hidden;rotatable=0;points=[[0,0.5],[1,0.5]];portConstraint=eastwest;fontSize=12;" vertex="1" parent="8NDdCrbXahnmu9EYXFvg-78">
          <mxGeometry y="146" width="160" height="30" as="geometry" />
        </mxCell>
        <mxCell id="8NDdCrbXahnmu9EYXFvg-82" value="visibilidade" style="text;strokeColor=none;fillColor=none;spacingLeft=4;spacingRight=4;overflow=hidden;rotatable=0;points=[[0,0.5],[1,0.5]];portConstraint=eastwest;fontSize=12;" vertex="1" parent="8NDdCrbXahnmu9EYXFvg-78">
          <mxGeometry y="176" width="160" height="30" as="geometry" />
        </mxCell>
        <mxCell id="8NDdCrbXahnmu9EYXFvg-83" value="tipo_conteudo" style="text;strokeColor=none;fillColor=none;spacingLeft=4;spacingRight=4;overflow=hidden;rotatable=0;points=[[0,0.5],[1,0.5]];portConstraint=eastwest;fontSize=12;" vertex="1" parent="8NDdCrbXahnmu9EYXFvg-78">
          <mxGeometry y="206" width="160" height="30" as="geometry" />
        </mxCell>
        <mxCell id="8NDdCrbXahnmu9EYXFvg-84" value="conteudo" style="text;strokeColor=none;fillColor=none;spacingLeft=4;spacingRight=4;overflow=hidden;rotatable=0;points=[[0,0.5],[1,0.5]];portConstraint=eastwest;fontSize=12;" vertex="1" parent="8NDdCrbXahnmu9EYXFvg-78">
          <mxGeometry y="236" width="160" height="30" as="geometry" />
        </mxCell>
        <mxCell id="8NDdCrbXahnmu9EYXFvg-90" style="edgeStyle=orthogonalEdgeStyle;rounded=0;orthogonalLoop=1;jettySize=auto;html=1;exitX=1;exitY=0.5;exitDx=0;exitDy=0;entryX=0;entryY=0.5;entryDx=0;entryDy=0;fontColor=#336600;" edge="1" parent="1" source="8NDdCrbXahnmu9EYXFvg-52" target="8NDdCrbXahnmu9EYXFvg-57">
          <mxGeometry relative="1" as="geometry" />
        </mxCell>
        <mxCell id="8NDdCrbXahnmu9EYXFvg-91" style="edgeStyle=orthogonalEdgeStyle;rounded=0;orthogonalLoop=1;jettySize=auto;html=1;fontColor=#336600;entryX=1;entryY=0.5;entryDx=0;entryDy=0;" edge="1" parent="1" source="8NDdCrbXahnmu9EYXFvg-57" target="8NDdCrbXahnmu9EYXFvg-66">
          <mxGeometry relative="1" as="geometry">
            <mxPoint x="590" y="330" as="targetPoint" />
            <Array as="points">
              <mxPoint x="650" y="131" />
              <mxPoint x="650" y="310" />
              <mxPoint x="280" y="310" />
              <mxPoint x="280" y="415" />
            </Array>
          </mxGeometry>
        </mxCell>
        <mxCell id="8NDdCrbXahnmu9EYXFvg-96" style="edgeStyle=orthogonalEdgeStyle;rounded=0;orthogonalLoop=1;jettySize=auto;html=1;entryX=0;entryY=0.5;entryDx=0;entryDy=0;fontColor=#336600;" edge="1" parent="1" source="8NDdCrbXahnmu9EYXFvg-72" target="8NDdCrbXahnmu9EYXFvg-79">
          <mxGeometry relative="1" as="geometry" />
        </mxCell>
        <mxCell id="8NDdCrbXahnmu9EYXFvg-99" style="edgeStyle=orthogonalEdgeStyle;rounded=0;orthogonalLoop=1;jettySize=auto;html=1;entryX=1;entryY=0.5;entryDx=0;entryDy=0;fontColor=#336600;" edge="1" parent="1" source="8NDdCrbXahnmu9EYXFvg-87" target="8NDdCrbXahnmu9EYXFvg-72">
          <mxGeometry relative="1" as="geometry">
            <Array as="points">
              <mxPoint x="570" y="475" />
              <mxPoint x="570" y="385" />
            </Array>
          </mxGeometry>
        </mxCell>
        <mxCell id="8NDdCrbXahnmu9EYXFvg-100" style="edgeStyle=orthogonalEdgeStyle;rounded=0;orthogonalLoop=1;jettySize=auto;html=1;entryX=1;entryY=0.5;entryDx=0;entryDy=0;fontColor=#336600;" edge="1" parent="1" source="8NDdCrbXahnmu9EYXFvg-81" target="8NDdCrbXahnmu9EYXFvg-65">
          <mxGeometry relative="1" as="geometry">
            <Array as="points">
              <mxPoint x="580" y="445" />
              <mxPoint x="580" y="630" />
              <mxPoint x="310" y="630" />
              <mxPoint x="310" y="385" />
            </Array>
          </mxGeometry>
        </mxCell>
        <mxCell id="8NDdCrbXahnmu9EYXFvg-101" style="edgeStyle=orthogonalEdgeStyle;rounded=0;orthogonalLoop=1;jettySize=auto;html=1;entryX=1;entryY=0.5;entryDx=0;entryDy=0;fontColor=#336600;" edge="1" parent="1" source="8NDdCrbXahnmu9EYXFvg-74" target="8NDdCrbXahnmu9EYXFvg-65">
          <mxGeometry relative="1" as="geometry" />
        </mxCell>
        <mxCell id="8NDdCrbXahnmu9EYXFvg-102" style="edgeStyle=orthogonalEdgeStyle;rounded=0;orthogonalLoop=1;jettySize=auto;html=1;entryX=1;entryY=0.5;entryDx=0;entryDy=0;fontColor=#336600;" edge="1" parent="1" source="8NDdCrbXahnmu9EYXFvg-73" target="8NDdCrbXahnmu9EYXFvg-57">
          <mxGeometry relative="1" as="geometry">
            <Array as="points">
              <mxPoint x="350" y="415" />
              <mxPoint x="350" y="320" />
              <mxPoint x="600" y="320" />
              <mxPoint x="600" y="131" />
            </Array>
          </mxGeometry>
        </mxCell>
        <mxCell id="8NDdCrbXahnmu9EYXFvg-104" style="edgeStyle=orthogonalEdgeStyle;rounded=0;orthogonalLoop=1;jettySize=auto;html=1;entryX=1;entryY=0.5;entryDx=0;entryDy=0;fontColor=#336600;" edge="1" parent="1" source="8NDdCrbXahnmu9EYXFvg-80" target="8NDdCrbXahnmu9EYXFvg-57">
          <mxGeometry relative="1" as="geometry" />
        </mxCell>
      </root>
    </mxGraphModel>
  </diagram>
</mxfile>
